<?xml version="1.0" encoding="utf-8" ?><svg xmlns="http://www.w3.org/2000/svg" xmlns:xlink="http://www.w3.org/1999/xlink" width="1024" height="1024" viewBox="0 0 1024 1024"><path fill="#FDFDFD" d="M0 0L1024 0L1024 1024L0 1024L0 0Z"/><path fill="#3A5B6B" d="M362.995 307.696C382.861 304.727 406.601 311.031 423.987 320.45C450.531 335.058 470.269 359.516 478.943 388.546C490.182 426.452 481.114 455.521 463.073 488.925C465.768 490.139 467.963 491.469 470.254 493.321C472.264 490.825 474.322 488.334 476.527 486.008C485.725 476.304 497.664 470.056 510.719 467.337C514.695 466.509 518.957 466.8 522.832 465.496C527.083 464.065 531.131 461.595 535.24 459.766C544.358 455.709 555.539 453.568 565.496 453.411C573.315 453.288 586.157 454.24 591.941 460.284C595.092 463.576 595.316 468.622 593.268 472.568C590.588 477.733 585.132 481.956 581.276 486.324C566.93 502.58 559.461 520.882 559.532 542.569C581.523 563.026 603.981 594.887 615.099 622.904C617.757 621.514 620.489 619.899 623.364 619.009C627.729 617.658 631.325 618.091 635.301 620.314C641.184 623.605 643.756 630.134 645.529 636.314C651.629 657.573 652.256 705.865 641.35 725.122C638.534 730.092 634.405 734.212 628.737 735.659C620.514 737.756 612.7 733.85 605.902 729.683C590.182 745.571 574.747 761.745 557.372 775.862C547.06 784.239 535.907 791.58 524.97 799.105C516.175 821.678 509.678 845.386 499.804 867.522C490.252 868.358 478.735 867.599 468.958 867.661C454.645 867.75 439.893 868.606 425.617 867.794C423.912 867.698 422.279 867.577 420.725 866.798C416.422 861.401 410.91 839.982 408.708 832.513C380.078 833.841 356.853 833.225 328.396 830.788L327.158 834.858C324.089 842.441 319.067 861.348 314.231 866.546C307.307 868.648 243.213 867.617 231.92 867.584C227.01 858.038 223.815 846.816 220.179 836.713C212.413 815.45 205.095 794.027 198.23 772.457C182.167 758.087 168.569 740.545 159.913 720.753C146.809 690.118 143.598 656.155 150.727 623.606C153.408 611.494 157.517 600.133 162.019 588.61C153.775 586.219 146.78 581.377 141.338 574.753C136.275 574.923 131.447 574.506 126.697 572.638C116.42 568.597 108.212 559.544 103.886 549.546C100.005 540.578 97.6614 526.754 101.59 517.443C102.255 515.866 103.429 514.081 105.213 513.669C106.562 513.357 106.979 513.714 107.998 514.446C109.737 518.231 107.673 523.382 107.174 527.384C105.958 537.129 109.506 547.813 115.517 555.508C121.252 562.85 128.198 566.631 137.402 567.811C135.417 560.912 133.472 553.975 134.938 546.75C135.974 541.642 138.689 536.676 143.192 533.857C146.883 531.566 151.343 530.864 155.559 531.91C160.185 533.063 164.376 536.261 166.745 540.391C169.122 544.533 169.556 549.489 168.187 554.041C165.341 563.504 157.014 568.664 148.807 572.936C153.879 577.583 158.975 580.153 165.406 582.499C195.09 534.148 235.7 506.36 289.115 489.141C275.652 471.608 266.384 451.762 263.971 429.645C260.567 400.776 268.836 371.743 286.938 348.999C306.216 325.062 332.577 311.101 362.995 307.696Z"/><path fill="#FDFDFD" d="M501.933 478.617C512.83 473.216 537.155 469.922 548.978 473.737C550.822 474.333 551.903 475.086 552.777 476.878C552.741 480.071 549.946 482.265 547.769 484.387C545.053 487.033 542.173 489.539 539.676 492.396C529.118 506.602 524.253 522.741 526.886 540.464C528.048 548.287 533.517 566.75 540.437 571.269C541.335 571.855 541.924 571.98 542.963 572.083C544.392 571.39 544.603 571.093 545.526 569.781C545.594 569.151 545.806 568.52 545.729 567.891C545.54 566.369 538.438 555.132 537.101 550.407C534.994 544.804 534.129 538.723 533.788 532.767C567.293 556.909 593.901 594.071 609.529 631.949C607.736 634.11 605.955 636.28 604.186 638.461C592.188 658.556 585.212 683.051 590.978 706.385C592.478 712.456 594.964 717.491 598.855 722.393C577.462 745.437 555.704 765.398 529.821 783.305C522.624 788.283 514.872 793.731 506.892 797.361L515.413 770.585C516.308 767.772 517.932 764.786 518.373 761.905C518.661 760.023 518.512 757.873 517.664 756.148C517.085 754.971 516.368 754.312 515.128 753.936C513.565 754.126 512.765 754.674 511.857 755.914C508.254 760.83 504.243 775.3 501.983 781.7C493.118 806.887 484.516 832.166 476.177 857.532L427.402 858.016C424.228 849.212 421.269 840.317 417.84 831.609C422.98 831.101 440.122 830.733 443.395 826.932C444.259 825.929 444.378 824.914 444.086 823.667C443.838 822.608 443.134 822.17 442.389 821.433C437.302 820.131 418.863 823.24 412.161 823.713C386.908 826.742 352.267 824.328 327.013 820.5C310.902 818.058 295.239 814.334 279.531 810.045C276.038 809.091 267.769 805.808 264.395 806.798C263.153 807.162 262.206 808.17 261.724 809.351C261.246 810.523 261.269 811.937 261.891 813.053C264.118 817.049 292.3 823.512 298.267 824.933C293.957 835.809 289.488 846.648 285.464 857.633L238.9 857.492C230.099 836.669 222.011 812.231 214.929 790.592C212.033 781.741 209.538 772.743 206.334 763.998C203.767 762.234 201.413 760.381 199.16 758.225C173.255 733.439 159.033 697.698 158.38 662.059C157.574 618.038 173.127 580.941 203.411 549.396C218.157 534.293 236.667 521.069 255.724 511.992C269.36 505.498 283.843 500.489 298.236 495.976C338.884 483.229 379.639 476.913 421.907 485.291C437.183 488.318 451.684 493.904 466.317 499.098C462.539 506.508 459 513.853 457.05 521.993C455.178 529.808 451.776 552.082 456.301 558.841C457.215 560.207 458.087 560.723 459.669 561.007C461.559 560.318 462.674 557.902 463.041 556.04C463.869 551.84 463.142 546.543 463.239 542.204C463.492 530.849 466.318 518.858 471.343 508.654C477.58 495.987 488.158 483.332 501.933 478.617Z"/><path fill="#DDDCDA" d="M203.411 549.396C203.43 549.608 203.451 549.819 203.468 550.031C204.138 558.379 202.827 566.912 202.413 575.254C201.942 584.76 202.247 594.503 202.88 603.999C206.947 664.996 238.23 720.659 284.055 760.216C312.514 784.782 345.69 802.534 381.191 814.525C388.383 816.954 407.519 820.72 412.161 823.713C386.908 826.742 352.267 824.328 327.013 820.5C310.902 818.058 295.239 814.334 279.531 810.045C276.038 809.091 267.769 805.808 264.395 806.798C263.153 807.162 262.206 808.17 261.724 809.351C261.246 810.523 261.269 811.937 261.891 813.053C264.118 817.049 292.3 823.512 298.267 824.933C293.957 835.809 289.488 846.648 285.464 857.633L238.9 857.492C230.099 836.669 222.011 812.231 214.929 790.592C212.033 781.741 209.538 772.743 206.334 763.998C203.767 762.234 201.413 760.381 199.16 758.225C173.255 733.439 159.033 697.698 158.38 662.059C157.574 618.038 173.127 580.941 203.411 549.396Z"/><path fill="#FDFDFD" d="M533.788 532.767C567.293 556.909 593.901 594.071 609.529 631.949C607.736 634.11 605.955 636.28 604.186 638.461C600.671 635.89 590.683 613.632 587.442 608.169C576.45 589.75 562.872 573.004 547.123 558.442C544.134 555.633 540.92 551.953 537.101 550.407C534.994 544.804 534.129 538.723 533.788 532.767Z"/><path fill="#FDFDFD" d="M501.933 478.617C512.83 473.216 537.155 469.922 548.978 473.737C550.822 474.333 551.903 475.086 552.777 476.878C552.741 480.071 549.946 482.265 547.769 484.387C545.053 487.033 542.173 489.539 539.676 492.396C537.366 491.407 535.343 489.49 533.259 488.083C526.091 483.241 520.121 480.815 511.491 480.042C508.501 479.774 504.64 479.953 501.933 478.617Z"/><path fill="#8ACDB8" d="M357.029 597.706C394.224 594.662 426.884 622.253 430.097 659.433C433.31 696.613 405.868 729.398 368.702 732.78C331.297 736.184 298.254 708.526 295.02 671.106C291.787 633.686 319.595 600.769 357.029 597.706Z"/><path fill="#FDFDFD" d="M361.653 620.972C361.832 620.968 362.012 620.956 362.192 620.958C364.539 620.992 366.513 621.496 368.179 623.238C373.137 628.424 371.332 650.059 371.294 657.497C378.503 657.443 399.023 655.6 404.025 660.211C405.55 661.616 406.209 663.422 406.248 665.475C406.285 667.376 405.607 669.185 404.218 670.503C399.066 675.39 378.658 673.451 371.307 673.381C371.252 681.453 373.006 700.008 369.904 706.622C368.73 709.126 367 709.988 364.483 710.846C363.811 710.779 363.146 710.717 362.482 710.588C359.44 710.001 358.27 708.471 356.567 706.007C355.514 695.327 356.553 684.218 356.235 673.457C348.569 673.467 327.863 675.188 322.496 670.598C320.941 669.268 320.116 667.434 320.043 665.4C319.972 663.422 320.558 661.558 321.994 660.157C326.805 655.466 348.887 657.403 355.994 657.496C356.086 648.615 354.779 637.745 356.252 629.132C356.957 625.008 358.281 623.318 361.653 620.972Z"/><path fill="#375668" d="M364.468 500.213C388.858 499.315 408.297 502.56 431.496 510.276C435.949 511.757 441.612 513.041 445.275 516.002C447.162 517.527 448.319 519.34 448.518 521.784C448.731 524.38 448.008 527.178 446.214 529.12C444.217 531.283 441.447 532.055 438.577 531.777C431.701 531.11 424.366 527.451 417.688 525.465C400.405 520.381 382.352 518.425 364.381 519.689C347.481 520.939 332.3 525.461 316.302 530.781C309.946 532.894 303.13 535.845 296.551 537.056C293.479 537.621 290.769 537.563 288.167 535.662C286.042 534.11 284.432 531.676 284.09 529.041C283.723 526.206 284.398 523.095 286.318 520.921C292.359 514.084 333.685 504.323 344.638 502.395C351.226 501.235 357.803 500.644 364.468 500.213Z"/><path fill="#375668" d="M554.825 601.706C561.206 600.155 567.927 602.171 572.401 606.977C576.876 611.783 578.407 618.63 576.405 624.884C574.404 631.138 569.181 635.824 562.748 637.138C553.051 639.12 543.554 632.97 541.394 623.311C539.234 613.652 545.208 604.043 554.825 601.706Z"/><path fill="#FDFDFD" d="M365.97 344.687C369.935 344.138 374.29 344.211 378.279 344.542C397.913 346.172 416.844 356.363 429.443 371.451C442.518 386.891 448.882 406.914 447.123 427.069C445.435 445.878 437.129 464.949 422.453 477.194C408.988 474.321 395.276 472.764 381.51 472.547C363.431 472.536 345.402 474.432 327.722 478.203C313.439 464.167 303.681 447.698 300.808 427.659C297.985 407.964 302.701 389.204 314.682 373.315C327.053 356.909 345.842 347.45 365.97 344.687Z"/><path fill="#3A5B6B" d="M366.747 365.412C367.327 365.39 367.873 365.241 368.397 365.556C370.864 367.039 380.537 394.432 382.222 398.808C387.012 396.834 408.7 386.995 412.237 387.091C412.999 387.112 413.626 387.999 414.04 388.584C416.146 391.565 422.723 407.496 422.162 410.791C418.84 414.976 398.116 422.082 392.06 424.609C393.863 428.732 406.303 453.702 405.364 456.477C400.416 461.066 388.712 464.337 382.141 466.738C381.21 466.942 380.711 466.895 379.793 466.651C375.466 461.763 371.113 442.363 367.73 434.975C358.231 437.758 345.092 445.354 336.802 446.498C335.947 446.165 335.586 445.859 334.991 445.127C333.896 443.781 326.922 427.272 326.331 425.136C326.089 424.262 326.122 423.487 326.186 422.593C327.996 419.698 352.197 410.84 357.042 408.926C353.201 397.882 347.531 387.271 342.906 376.521C342.971 376.485 343.035 376.449 343.099 376.411C350.568 371.955 359.175 369.818 366.747 365.412Z"/><path fill="#F8A6A9" d="M365.381 372.003C370.638 377.144 374.129 400.711 379.433 404.722C383.784 405.006 405.013 395.273 410.103 392.805C412.513 397.958 414.569 403.269 416.258 408.701C408.008 412.538 399.517 415.408 390.992 418.522C389.415 419.098 387.001 419.892 386.368 421.637C384.963 425.505 396.967 448.541 399.462 453.883C394.011 456.528 388.427 458.764 382.778 460.942C379.922 460.397 375.28 432.016 370.002 428.964C362.69 429.239 346.315 437.632 339.107 440.76L332.004 424.634C337.549 422.438 360.671 414.307 363.118 411.412C363.197 406.504 352.64 384.787 349.955 378.494C355.227 376.642 360.436 374.616 365.381 372.003Z"/><path fill="#FABA1F" d="M356.388 316.25C384.665 312.419 410.888 318.167 433.825 335.691C455.766 352.454 471.353 379.359 474.916 406.754C475.319 409.695 475.552 412.657 475.612 415.625C475.647 415.714 475.697 415.799 475.715 415.893C476.653 420.687 476.127 426.445 475.606 431.275C473.367 452.019 465.963 469.124 454.74 486.408C446.684 483.33 438.586 480.719 430.289 478.372C442.203 463.682 450.447 448.794 452.522 429.644C455.069 407.8 448.654 385.857 434.741 368.826C421.159 352.263 401.439 341.069 380.003 339.068C359.301 337.135 337.265 344.24 321.37 357.609C305.565 370.901 296.201 389.941 294.456 410.396C292.132 437.64 303.708 459.941 320.698 480.233C312.931 482.774 305.006 484.841 297.127 487.006C284.336 471.408 275.17 453.946 271.978 433.882C267.722 406.535 274.507 378.618 290.84 356.275C306.548 334.802 330.111 320.414 356.388 316.25Z"/><path fill="#FDFDFD" d="M356.388 316.25C384.665 312.419 410.888 318.167 433.825 335.691C455.766 352.454 471.353 379.359 474.916 406.754C475.319 409.695 475.552 412.657 475.612 415.625C474.517 411.987 474.216 408.158 473.521 404.431C471.939 395.955 469.652 388.078 465.907 380.299C450.796 348.914 419.95 324.959 385.456 319.093C381.938 318.494 378.352 317.991 374.793 317.721C370.901 317.426 360.108 317.743 357.073 316.542C356.842 316.45 356.617 316.347 356.388 316.25Z"/><path fill="#F8A6A9" d="M612.582 641.355C615.742 636.674 620.764 628.454 626.587 627.073C628.48 626.623 630.315 627.036 631.897 628.149C638.314 632.666 639.662 645.174 640.646 652.304C641.355 657.433 641.899 662.66 642.09 667.834C643.829 680.814 640.907 706.482 635.522 718.116C633.208 723.115 630.623 725.886 625.486 727.795C619.897 726.665 615.088 725.126 610.619 721.376C602.632 714.673 598.963 703.824 598.125 693.711C596.788 677.572 601.967 653.951 612.582 641.355Z"/><path fill="#FDFDFD" d="M612.582 641.355C615.742 636.674 620.764 628.454 626.587 627.073C628.48 626.623 630.315 627.036 631.897 628.149C638.314 632.666 639.662 645.174 640.646 652.304C641.355 657.433 641.899 662.66 642.09 667.834C642.048 671.209 641.933 674.582 641.745 677.952C640.095 669.895 639.499 661.816 637.408 653.768C635.959 648.189 633.682 640.422 628.268 637.488C621.75 633.957 618.695 640.17 613.139 641.301C612.956 641.338 612.768 641.337 612.582 641.355Z"/><path fill="#3A5B6B" d="M626.657 654.701C627.326 654.85 627.935 655.147 628.567 655.409C633.462 660.876 632.847 675.363 632.556 682.253C632.333 687.546 631.806 693.596 627.707 697.367C627.214 697.08 626.997 696.972 626.566 696.67C623.749 694.689 622.735 689.622 622.268 686.395C620.931 677.14 620.874 662.527 626.657 654.701Z"/><path fill="#F8A6A9" d="M559.282 462.195C559.419 462.178 559.555 462.154 559.692 462.143C568.918 461.441 579.112 461.213 586.441 467.651C583.255 472.865 578.31 477.37 574.262 481.952C568.066 489.019 562.833 496.875 558.7 505.315C556.311 510.102 554.516 515.163 553.355 520.385C552.737 523.192 552.213 533.437 551.348 534.647C549.937 534.479 549.458 533.785 548.393 532.905C543.689 529.29 539.049 525.674 534.202 522.247C536.643 513.903 539.05 505.874 544.393 498.84C549.071 492.681 557.441 487.342 560.196 480.064C561.023 477.878 561.123 475.419 560.067 473.289C557.562 468.236 550.723 466.536 545.83 464.892C550.189 463.44 554.726 462.674 559.282 462.195Z"/><path fill="#F8A6A9" d="M306.026 827.305C310.59 828.26 315.133 828.993 319.67 830.116C317.766 834.895 310.655 855.297 308.92 857.534C304.157 857.522 299.373 857.736 294.61 857.85C298.376 847.647 302.366 837.553 306.026 827.305Z"/><path fill="#FDFDFD" d="M149.006 538.532C149.837 538.481 150.672 538.438 151.506 538.465C154.268 538.555 157.528 539.626 159.387 541.757C161.177 543.81 161.685 546.61 161.395 549.257C160.718 555.43 156.224 559.742 151.616 563.358C149.476 564.591 147.261 565.434 144.962 566.305C141.87 560.552 140.026 552.839 142.071 546.442C143.303 542.591 145.534 540.423 149.006 538.532Z"/><path fill="#F8A6A9" d="M513.023 805.543L513.397 805.945C512.051 810.718 509.379 815.743 507.555 820.413C502.688 832.682 498.004 845.024 493.504 857.432L487.16 857.52L486.89 857.227C486.821 854.112 500.308 816.438 502.22 811.636L513.023 805.543Z"/><path fill="#3A5B6B" d="M578.943 30.8735C660.703 25.1395 731.599 86.8454 737.197 168.615C742.796 250.385 680.974 321.178 599.195 326.643C517.606 332.094 447.014 270.446 441.428 188.867C435.842 107.288 497.373 36.594 578.943 30.8735Z"/><path fill="#FDFDFD" d="M581.593 37.4241C659.635 33.1424 726.377 92.9249 730.681 170.966C734.985 249.006 675.221 315.765 597.181 320.091C519.111 324.419 452.319 264.626 448.014 186.554C443.708 108.482 503.52 41.7075 581.593 37.4241Z"/><path fill="#3A5B6B" d="M567.735 82.6484C572.93 82.0541 578.045 82.416 583.012 84.1052C598.061 89.2229 606.265 102.448 612.993 115.916C620.11 114.299 632.431 108.914 639.08 112.133C643.63 118.701 646.573 132.174 649.118 140.116L660.762 176.239C666.325 193.453 672.573 210.619 677.664 227.964C678.882 232.113 680.334 235.823 677.962 239.854C676.519 242.304 673.978 243.514 671.425 244.544C665.808 246.811 659.37 247.843 653.504 249.398L615.39 259.589L567.169 272.006C559.405 274.036 548.874 278.031 541.003 278.193C538.221 278.25 535.939 276.871 534.086 274.863C532.691 273.351 532.106 272.017 531.709 270.001C530.546 264.107 530.274 257.909 529.494 251.936L524.179 212.082C521.871 195.706 519.747 179.305 517.81 162.882C517.023 155.906 515.738 148.629 515.969 141.609C516.08 141.455 516.193 141.302 516.302 141.147C516.914 140.279 517.536 139.276 518.396 138.632C522.34 135.677 533.901 134.182 539.126 133.038C538.688 119.127 538.989 105.547 547.697 93.8839C552.82 87.0229 559.507 83.8712 567.735 82.6484Z"/><path fill="#F8A6A9" d="M633.238 116.565L634.912 116.651C635.744 117.525 636.148 118.282 636.578 119.415C639.595 127.36 641.622 135.914 644.202 144.034C650.217 162.959 656.216 181.938 662.506 200.771C664.742 207.464 672.782 228.723 673.249 234.2C673.365 235.559 672.472 237.108 671.525 238.074C670.692 238.924 669.696 239.292 668.585 239.651C663.319 241.356 657.668 242.445 652.295 243.818L621.768 251.816C597.239 258.303 572.639 265.652 547.847 270.975C545.095 271.566 542.419 271.889 539.606 271.979C538.254 270.684 537.779 268.861 537.377 267.063C536.254 262.05 536.102 256.626 535.466 251.522L531.127 218.043C528.905 202.705 527.042 187.295 525.027 171.926C523.789 162.489 521.999 152.765 521.595 143.274C527.922 141.918 534.221 140.432 540.488 138.817C541.167 142.331 541.414 145.943 541.763 149.504C541.62 149.663 541.474 149.82 541.333 149.981L540.667 150.747C539.512 152.063 538.496 153.234 537.913 154.918C537.15 157.117 537.049 159.56 538.11 161.676C539.136 163.721 541.069 165.197 543.23 165.879C546.003 166.758 549.019 166.423 551.532 164.956C553.493 163.791 554.875 161.959 555.378 159.729C555.902 157.402 555.724 154.422 554.289 152.432C552.673 150.191 550.404 149.588 547.818 149.109C547.002 145.212 546.394 141.261 545.718 137.337C566.82 132.267 587.96 127.359 609.137 122.614C610.381 126.322 611.586 130.046 613.062 133.671C611.772 134.931 610.327 136.368 609.529 138C608.549 140.003 608.423 142.531 609.262 144.603C610.15 146.794 612.052 148.54 614.206 149.464C616.855 150.601 619.955 150.625 622.577 149.392C624.771 148.361 626.371 146.55 627.196 144.279C627.978 142.128 627.972 139.971 626.988 137.892C625.775 135.329 623.704 133.338 621.019 132.478C620.945 132.455 619.674 132.069 619.546 132.011C617.316 130.988 615.62 123.682 614.845 121.357C620.964 119.713 627.095 118.116 633.238 116.565Z"/><path fill="#FDFDFD" d="M570.772 87.6853C574.994 87.4964 579.202 88.2927 583.064 90.0113C594.796 95.1414 602.639 105.442 607.28 117.038C596.438 118.965 585.641 121.886 574.897 124.35C564.663 126.731 554.46 129.238 544.288 131.87C543.378 120.222 544.917 106.52 552.386 97.0398C557.191 90.9411 563.309 88.5468 570.772 87.6853Z"/><path fill="#7FF1F4" d="M615.588 137.335C616.997 136.516 618.74 136.532 620.134 137.376C621.528 138.22 622.35 139.757 622.279 141.385C622.207 143.012 621.253 144.471 619.791 145.19C617.635 146.248 615.029 145.409 613.896 143.292C612.763 141.175 613.511 138.54 615.588 137.335Z"/><path fill="#7FF1F4" d="M546.115 153.744C548.111 153.363 550.049 154.634 550.494 156.616C550.939 158.599 549.731 160.576 547.763 161.084C546.434 161.427 545.023 161.019 544.082 160.019C543.141 159.02 542.82 157.587 543.243 156.28C543.666 154.974 544.767 154.002 546.115 153.744Z"/><path fill="#3A5B6B" d="M585.649 47.2194C587.374 47.1637 589.1 47.1333 590.826 47.1282C614.861 47.3266 638.326 54.4748 658.39 67.7106C661.598 69.8344 665.594 72.1934 668.244 74.9913C669.473 76.2885 670.011 77.598 669.966 79.3385C667.097 81.0666 662.792 76.6789 660.549 74.9943C644.102 62.772 624.748 55.0562 604.403 52.6103C571.65 48.3572 538.574 57.5748 512.742 78.154C484.79 100.156 469.27 132.185 465.053 167.009C463.34 190.702 466.923 212.335 476.497 234.129C479.103 240.063 483.739 245.674 485.41 251.862C485.148 253.016 485.143 253.064 484.237 253.819C483.227 253.642 483.005 253.552 482.268 252.883C479.775 250.621 478.02 246.786 476.389 243.832C466.363 225.639 460.706 205.363 459.865 184.607C458.416 149.106 471.179 114.493 495.329 88.431C519.394 62.4176 550.333 48.6666 585.649 47.2194Z"/><path fill="#3A5B6B" d="M692.531 102.114C693.403 102.341 693.973 102.457 694.705 103.023C697.079 104.857 699.337 109.322 700.795 111.928C710.178 128.441 715.998 146.736 717.881 165.634C721.496 200.381 711.248 235.15 689.365 262.381C665.198 291.98 633.917 305.915 596.438 309.672C596.213 309.613 595.978 309.586 595.764 309.495C594.491 308.954 594.257 308.466 593.645 307.313L594.064 306.199C597.742 303.547 606.734 304.281 611.357 303.449C620.582 301.788 629.829 298.879 638.46 295.247C669.385 282.234 692.87 257.09 705.36 226.176C717.695 195.646 716.846 158.923 703.881 128.742C702.027 124.425 700.048 119.973 697.731 115.885C695.851 112.567 692.49 109.105 691.427 105.501C691.005 104.067 691.837 103.299 692.531 102.114Z"/><path fill="#3A5B6B" d="M504.354 272.621C505.274 272.799 506.196 272.934 507.003 273.443C509.843 275.233 512.517 277.816 515.195 279.892C520.212 283.792 525.523 287.3 531.079 290.385C539.198 294.899 547.455 298.204 556.384 300.713C560.273 301.806 569.01 302.773 571.693 304.957C572.133 306.339 571.598 307.316 571.104 308.595C570.621 308.563 570.137 308.537 569.658 308.466C550.084 305.586 529.636 296.386 513.668 285.017C510.436 282.715 506.407 279.989 504.25 276.589C503.326 275.133 503.922 274.129 504.354 272.621Z"/><path fill="#3A5B6B" d="M840.03 281.055C919.253 276.001 987.562 336.152 992.571 415.378C997.581 494.603 937.393 562.879 858.164 567.845C778.997 572.807 710.787 512.676 705.781 433.512C700.776 354.348 760.869 286.104 840.03 281.055Z"/><path fill="#FDFDFD" d="M846.356 287.355C922.174 285.816 984.834 346.132 986.184 421.953C987.534 497.775 927.062 560.284 851.237 561.445C775.68 562.602 713.439 502.389 712.093 426.835C710.748 351.28 770.805 288.89 846.356 287.355Z"/><path fill="#3A5B6B" d="M780.709 373.884C781.159 372.692 781.597 371.438 782.174 370.299C783.942 366.805 786.811 365.211 790.383 364.022C805.627 358.95 821.229 354.85 836.538 349.918C848.314 346.123 860.13 342.449 871.982 338.897C877.57 337.205 883.444 334.942 889.197 333.965C891.865 333.512 894.395 333.671 896.808 334.985C898.945 336.147 900.277 338.568 901.256 340.705C903.752 346.156 905.153 352.624 906.897 358.383C908.751 364.505 910.904 370.538 912.751 376.655C913.674 379.71 914.062 383.298 912.384 386.172C909.83 390.545 903.37 391.696 898.865 393.045C899.998 395.836 901.068 398.658 902.517 401.305C907.185 401.23 913.289 400.678 917.337 403.37C920.498 405.473 923.013 409.143 923.758 412.867C924.78 417.981 924.136 424.043 924.111 429.275L923.992 459.62C923.966 468.215 924.813 477.473 923.904 485.988C923.555 489.267 922.524 492.435 920.587 495.126C918.339 498.25 914.866 500.879 910.999 501.467C905.44 502.313 898.949 501.708 893.295 501.703L857.943 501.648L809.867 501.624C801.073 501.614 791.854 502.129 783.122 501.243C780.077 500.934 777.955 500.326 775.529 498.388C771.993 495.564 771.074 492.459 770.676 488.043C769.583 475.893 770.832 459.726 770.848 447.169L770.815 425.72C770.773 421.49 770.294 417.109 770.811 412.906C771.142 410.211 771.975 407.47 773.816 405.407C777.579 401.192 783.5 401.237 788.686 400.971C786.213 391.916 782.212 383.171 780.709 373.884Z"/><path fill="#FDFDFD" d="M896.351 393.89C897.468 393.772 897.895 393.555 898.865 393.045C899.998 395.836 901.068 398.658 902.517 401.305L899.044 401.509C889.733 401.618 880.42 401.596 871.11 401.442C879.43 398.692 887.818 395.906 896.351 393.89Z"/><path fill="#3A5B6B" d="M896.351 393.89C897.468 393.772 897.895 393.555 898.865 393.045C899.998 395.836 901.068 398.658 902.517 401.305L899.044 401.509C898.385 398.908 897.303 396.397 896.351 393.89Z"/><path fill="#FDFDFD" d="M776.543 445.592C793.468 445.081 810.536 445.427 827.473 445.446L917.58 445.588C917.52 454.555 917.683 463.534 917.755 472.502C917.797 477.651 918.329 483.241 917.271 488.298C916.907 490.033 915.94 491.409 914.943 492.84C911.405 495.575 908.803 495.527 904.507 495.562C878.048 495.779 851.473 494.814 825.001 494.62L798.403 494.604C793.474 494.614 788.191 494.977 783.301 494.381C781.524 494.165 779.762 493.473 778.54 492.12C774.983 488.182 776.501 453.002 776.543 445.592Z"/><path fill="#FABA1F" d="M791.888 458.461L792.379 457.369C799.785 456.19 809.986 456.78 817.523 457.221L817.487 481.468C809.723 481.507 801.536 480.984 793.836 481.776C793.211 481.618 792.881 481.342 792.36 480.974C790.667 475.739 791.798 464.431 791.888 458.461Z"/><path fill="#375668" d="M791.888 458.461L792.379 457.369C799.785 456.19 809.986 456.78 817.523 457.221L817.487 481.468C809.723 481.507 801.536 480.984 793.836 481.776L794.454 479.257C801.303 479.404 808.154 479.417 815.003 479.297L815.004 459.887C811.645 459.804 797.02 458.878 794.748 460.426L794.256 463.539C794.117 462.557 794.042 461.42 793.744 460.479C793.313 459.116 793.085 459.023 791.888 458.461Z"/><path fill="#3A5B6B" d="M791.888 458.461C793.085 459.023 793.313 459.116 793.744 460.479C794.042 461.42 794.117 462.557 794.256 463.539C795.194 468.466 794.596 474.228 794.454 479.257L793.836 481.776C793.211 481.618 792.881 481.342 792.36 480.974C790.667 475.739 791.798 464.431 791.888 458.461Z"/><path fill="#375668" d="M832.723 456.946L857.686 456.983C857.732 458.903 857.656 460.788 857.538 462.705C857.682 469.059 857.707 475.416 857.611 481.771C849.466 481.886 840.813 482.458 832.736 481.619C832.622 477.597 832.512 473.495 832.914 469.485C832.457 465.406 832.692 461.049 832.723 456.946Z"/><path fill="#FABA1F" d="M835.423 459.695C842.095 459.672 848.821 459.476 855.486 459.701C855.453 465.669 855.095 471.845 855.728 477.782L855.268 478.792C851.884 480.553 839.682 479.34 835.445 479.264L835.343 466.351L835.423 459.695Z"/><path fill="#3A5B6B" d="M855.728 477.782C856.544 472.813 856.32 467.573 857.538 462.705C857.682 469.059 857.707 475.416 857.611 481.771C849.466 481.886 840.813 482.458 832.736 481.619C832.622 477.597 832.512 473.495 832.914 469.485C833.365 472.746 832.746 475.914 833.998 479.019L834.481 478.92C835.261 474.911 834.683 470.816 835.275 466.779C835.296 466.636 835.321 466.494 835.343 466.351L835.445 479.264C839.682 479.34 851.884 480.553 855.268 478.792L855.728 477.782Z"/><path fill="#FABA1F" d="M874.966 456.619C875.148 456.646 875.329 456.674 875.51 456.698C880.626 457.379 894.129 455.302 897.051 458.726C899.9 462.063 899.309 472.084 898.806 476.271C898.548 478.415 897.737 479.545 896.244 481.055C889.326 482.584 880.518 481.703 873.376 481.78C873.343 474.545 872.822 466.884 873.436 459.684C873.574 458.062 873.695 457.636 874.966 456.619Z"/><defs><linearGradient id="gradient_0" gradientUnits="userSpaceOnUse" x1="879.90942" y1="453.63083" x2="901.61774" y2="472.75958"><stop offset="0" stop-color="#4B5461"/><stop offset="1" stop-color="#315E7B"/></linearGradient></defs><path fill="url(#gradient_0)" d="M874.966 456.619C875.148 456.646 875.329 456.674 875.51 456.698C880.626 457.379 894.129 455.302 897.051 458.726C899.9 462.063 899.309 472.084 898.806 476.271C898.548 478.415 897.737 479.545 896.244 481.055L895.546 479.017C895.507 474.207 896.951 464.666 894.562 460.668C891.141 458.151 880.583 459.53 876.06 459.572L874.966 456.619Z"/><path fill="#3A5B6B" d="M873.376 481.78C873.343 474.545 872.822 466.884 873.436 459.684C873.574 458.062 873.695 457.636 874.966 456.619L876.06 459.572C875.971 466.14 875.95 472.708 875.999 479.276C882.497 479.287 889.065 479.493 895.546 479.017L896.244 481.055C889.326 482.584 880.518 481.703 873.376 481.78Z"/><path fill="#FDFDFD" d="M806.346 405.745L872.48 405.751C884.029 405.739 896.045 405.059 907.542 406.175C909.878 406.402 912.964 406.563 914.676 408.353C918.792 412.655 917.481 419.747 917.179 425.164L888.75 425.241C851.464 425.005 814.177 425.071 776.893 425.44C776.783 420.326 775.554 411.613 779.297 407.698C780.392 406.552 781.853 405.953 783.401 405.717C787.838 405.041 800.953 405.817 806.346 405.745Z"/><path fill="#F8A6A9" d="M888.669 338.028C890.499 337.747 892.18 337.648 893.839 338.647C897.769 341.013 898.652 349.94 899.923 354.157C865.406 364.198 830.963 374.492 796.597 385.039L789.115 387.452C787.704 382.785 784.174 375.532 786.256 370.884C788.003 369.113 790.83 368.091 793.149 367.237C803.421 363.452 814.27 360.769 824.748 357.549C846.021 350.93 867.328 344.423 888.669 338.028Z"/><path fill="#FDFDFD" d="M899.224 357.48L900.204 357.407C902.78 359.496 905.278 370.766 906.453 374.647C886.171 379.865 865.993 386.109 845.964 392.223C836.249 395.188 823.949 399.961 814.074 401.281C808.66 402.005 802.842 401.56 797.375 401.507C796.572 401.487 795.393 401.651 794.709 401.202C792.217 399.564 791.185 393.582 790.224 390.749C798.971 387.369 808.203 384.961 817.169 382.191C844.445 373.761 872.182 366.593 899.224 357.48Z"/><path fill="#FDFDFD" d="M784.69 429.25C828.932 429.05 873.176 429.098 917.418 429.394L917.496 441.547L909.25 441.535L776.499 441.646L776.551 429.579L784.69 429.25Z"/><path fill="#8ACDB8" d="M905.792 378.027C906.519 377.915 906.947 378.01 907.66 378.147C908.514 379.063 908.752 379.707 908.849 380.97C908.996 382.778 908.338 384.559 907.051 385.837C905.032 387.842 863.347 400.736 858.478 401.262C849.634 402.218 840.278 401.58 831.375 401.515L828.609 401.381L828.796 400.962C854.346 392.935 880.014 385.288 905.792 378.027Z"/><path fill="#3A5B6B" d="M844.11 297.213C847.433 297.049 850.814 297.076 854.137 297.219C860.335 297.485 884.763 300.086 888.52 305.04C888.964 305.627 888.626 306.074 888.466 306.719C887.505 307.359 886.965 307.556 885.786 307.379C882.797 306.93 879.679 305.514 876.698 304.784C868.966 302.841 861.058 301.683 853.093 301.328C833.563 300.562 813.445 305.443 796.032 314.186C766.876 328.645 744.757 354.219 734.651 385.155C724.078 417.462 727.259 451.369 742.543 481.567C744.776 485.664 747.227 489.639 749.885 493.475C752.859 497.763 758.998 503.442 760.374 508.259C759.98 509.621 759.823 509.691 758.709 510.594C757.619 510.531 757.331 510.528 756.476 509.763C753.472 507.078 750.917 502.939 748.533 499.641C733.865 479.64 725.37 455.782 724.098 431.011C722.208 396.896 734.055 363.444 756.994 338.121C779.411 313.178 810.788 298.969 844.11 297.213Z"/><path fill="#3A5B6B" d="M917.502 320.847C917.655 320.847 917.807 320.841 917.96 320.846C924.62 321.071 934.38 331.261 938.797 335.769C961.745 359.19 974.216 392.087 973.834 424.722C973.426 459.585 959.834 492.576 934.691 516.852C916.461 534.453 891.376 547.356 866.174 550.787C858.924 551.774 851.67 551.767 844.375 551.632C843.428 551.584 842.907 551.394 842.07 550.957L841.729 549.669C843.193 545.737 852.557 547.536 856.1 547.513C860.082 547.488 864.213 546.671 868.135 546.012C889.793 542.421 909.994 532.779 926.407 518.199C951.961 496.092 967.374 464.503 969.07 430.756C971.064 396.452 959.335 363.617 935.374 338.863C932.611 336.009 929.665 333.337 926.556 330.864C924.25 329.005 919.219 326.507 917.664 324.147C916.779 322.805 917.144 322.321 917.502 320.847Z"/><path fill="#3A5B6B" d="M784.217 526.69C785.887 527.349 804.346 537.155 805.219 537.89C805.363 539.537 804.864 540.612 804.248 542.089C799.616 540.375 784.338 534.446 782.333 530.479C782.398 528.842 783.269 527.931 784.217 526.69Z"/><path fill="#375668" d="M853.724 691.303C854.185 691.266 854.299 691.244 854.808 691.278C857.178 691.437 858.789 693.499 860.301 695.135C869.964 705.595 878.453 717.512 887.73 728.367C898.747 741.258 910.644 753.365 921.75 766.182C926.196 771.314 936.828 782.207 939.551 788.106C940.389 789.922 940.633 792.387 940.42 794.363C939.763 800.447 931.1 806.453 926.654 810.227C927.4 811.048 928.114 811.897 928.795 812.773C933.019 818.262 944.566 834.438 947.086 840.31C948.075 842.615 948.676 845.237 948.277 847.747C947.853 850.414 944.809 852.761 942.799 854.347C938.445 857.78 933.571 860.768 928.98 863.881L900.49 883.185C879.427 897.716 857.956 911.59 836.669 925.786L773.24 968.571C769.616 970.979 763.548 976.14 759.132 975.329C753.381 969.875 748.959 961.759 744.497 955.203C738.374 946.23 732.148 937.328 725.819 928.498C713.735 911.651 700.783 895.634 689.029 878.517C684.843 872.422 680.176 866.578 676.939 859.901C677.025 858.61 677.15 858.371 677.859 857.279C680.478 855.678 682.893 856.245 685.778 856.703C686.937 854.645 688.269 852.696 689.572 850.727C687.449 847.572 682.759 842.513 683.217 838.496C683.482 836.168 686.712 833.981 688.429 832.457C694 827.51 699.909 822.923 705.616 818.131C720.271 805.825 735.001 793.491 749.457 780.961L823.063 717.473C833.268 708.752 843.276 699.725 853.724 691.303Z"/><path fill="#BEE3AB" d="M819.472 729.892C820.881 730.813 822.87 735.914 823.987 737.624C827.695 743.295 833.161 746.485 839.807 747.814C855.45 750.944 871.868 745.055 884.714 736.436C890.673 742.96 896.876 749.223 902.589 755.972C895.491 765.471 888.1 776.151 886.672 788.223C885.121 801.341 890.617 813.29 898.615 823.341C885.752 835.17 871.909 846.021 858.532 857.26C843.114 870.215 828.05 883.574 812.724 896.638C809.458 899.453 806.082 902.152 802.753 904.893C797.425 899.425 791.842 894.489 784.82 891.314C769.121 884.216 753.227 886.866 737.66 892.633C734.077 887.233 730.109 882.111 726.104 877.022C730.758 870.526 733.914 863.666 735.77 855.878C739.665 839.532 737.147 822.579 728.334 808.304C738.321 800.055 747.915 791.381 757.719 782.922C778.407 765.366 798.992 747.689 819.472 729.892Z"/><path fill="#3A5B6B" d="M799.233 784.972C800.247 783.947 801.328 782.765 802.544 781.982C804.57 780.679 808.034 779.732 810.394 780.537C812.019 781.092 813.145 782.457 813.822 783.983C816.222 789.394 808.67 795.631 806.949 800.398L807.554 801.425C810.3 802.101 813.029 799.809 816.118 800.397C819.46 801.032 821.104 804.258 822.739 806.893C826.656 805.937 830.385 805.527 834.336 806.582C838.658 807.736 842.534 810.535 844.763 814.444C850.954 825.3 842.964 836.393 840.165 846.795C840.108 847.011 840.055 847.227 839.999 847.443C841.94 850.13 843.275 852.269 843.469 855.653C843.606 858.059 843.216 860.79 841.383 862.535C840.232 863.631 838.662 864.103 837.098 863.942C832.697 863.487 830.039 859.579 827.625 856.339L827.213 856.814C826.967 858.223 826.739 859.142 825.683 860.161C824.486 861.315 822.836 861.701 821.22 861.546C818.394 861.274 815.586 859.476 813.883 857.25C812.616 855.593 811.702 853.047 812.168 850.95C813.024 847.098 818.013 846.413 820.772 844.383C821.667 843.725 822.331 842.717 822.319 841.571C822.285 838.332 818.31 835.138 816.235 833.015C812.985 834.07 809.734 835.148 806.453 836.107C800.605 837.815 794.846 838.018 789.398 834.877C785.141 832.459 782.047 828.418 780.824 823.678C778.374 813.957 785.33 806.111 790.134 798.471C788.56 797.952 786.851 797.492 785.577 796.382C784.105 795.101 783.343 793.399 783.322 791.448C783.293 788.712 784.827 786.067 786.757 784.22C788.595 782.461 791.21 781.059 793.827 781.267C796.424 781.473 797.706 783.05 799.233 784.972Z"/><path fill="#BDE680" d="M827.213 856.814C825.491 857.077 823.339 858.626 821.698 858.564C820.335 858.512 818.539 857.16 817.571 856.302C816.061 854.965 815.138 853.797 815.001 851.734C815.415 850.675 815.997 850.283 816.903 849.646C819.336 847.933 824.545 844.361 827.504 844.874C828.584 847.494 827.044 852.73 827.542 855.884C827.566 856.036 827.597 856.187 827.625 856.339L827.213 856.814Z"/><path fill="#FDFDFD" d="M805.548 783.516C806.566 783.487 808.09 783.381 809.04 783.793C810.363 784.367 810.509 784.776 811.064 786.006C810.865 790.856 805.695 796.359 802.854 800.213C806.206 804.529 810.647 808.408 814.447 812.356C812.545 814.303 810.503 816.12 808.507 817.97C805.793 815.321 802.996 811.05 799.852 809.076C798.774 808.399 797.634 808.225 796.414 808.682C794.627 809.351 793.428 811.345 792.833 813.056C791.953 815.585 791.962 818.563 793.214 820.971C794.106 822.686 795.566 823.941 797.445 824.451C806.26 826.848 815.354 815.119 822.347 811.19C825.863 809.214 829.721 808.172 833.674 809.417C837.509 810.624 841.236 813.752 842.891 817.438C846.839 826.23 840.568 836.317 837.691 844.513C837.057 848.458 838.803 850.004 839.74 853.62C840.336 855.917 840.691 857.811 839.421 859.942C838.139 860.862 837.515 860.836 836.003 860.84C833.058 859.625 831.715 857.14 830.068 854.576C830.332 851.101 830.56 847.623 830.754 844.144C826.179 839.35 821.504 834.652 816.731 830.055C808.659 831.788 800.033 836.68 791.855 832.662C788.231 830.892 785.452 827.762 784.123 823.953C780.826 814.236 789.289 806.201 793.114 798.072L793.431 797.389C790.916 795.486 788.061 793.872 785.397 792.173C786.631 789.497 787.814 787.209 790.12 785.289C791.401 784.222 792.187 783.949 793.838 784.064C795.614 785.53 795.837 787.043 796.132 789.21C796.268 790.209 796.322 791.053 796.742 791.979C798.849 791.607 802.727 785.316 805.088 783.801C805.24 783.704 805.394 783.611 805.548 783.516Z"/><path fill="#3A5B6B" d="M827.876 818.463C828.59 818.421 829.299 818.372 830.015 818.395C832.265 818.468 833.989 819.336 835.446 821.054C836.711 822.545 837.301 824.352 837.035 826.298C836.695 828.788 835.555 830.125 833.572 831.549C833.497 831.548 833.422 831.546 833.347 831.546C832.915 831.546 832.482 831.552 832.05 831.535C829.675 831.445 827.893 830.46 826.347 828.658C825.012 827.102 824.338 825.159 824.654 823.111C824.994 820.902 826.137 819.735 827.876 818.463Z"/><path fill="#BEE3AB" d="M829.833 820.772C830.954 821.13 832.037 821.535 832.931 822.337C833.85 823.16 834.316 824.508 834.176 825.718C833.995 827.276 832.82 828.155 831.689 829.046C830.863 828.559 830.001 828.072 829.244 827.481C828.131 826.611 827.794 825.673 827.61 824.302C828.016 822.645 828.683 821.939 829.833 820.772Z"/><path fill="#BDE680" d="M797.369 811.303C800.41 813.146 803.014 816.466 805.478 819.049C805.081 820.351 804.074 820.675 802.979 821.422C801.221 821.594 799.635 821.819 797.96 821.132C796.769 820.644 795.747 819.58 795.398 818.336C794.677 815.763 795.998 813.373 797.369 811.303Z"/><path fill="#BDE680" d="M812.895 802.81C815.146 802.801 816.995 803.572 818.565 805.237C819.322 806.039 819.749 807.042 819.691 808.146C819.644 809.046 818.489 809.781 817.854 810.387L816.997 810.305C815.095 808.682 812.623 806.818 811.948 804.304L812.895 802.81Z"/><path fill="#BEE3AB" d="M895.35 836.423C895.962 839.424 895.315 842.796 895.718 845.905C896.944 855.351 901.003 863.256 905.564 871.45C897.014 876.82 888.783 882.757 880.332 888.29C854.189 905.262 828.203 922.475 802.377 939.927C801.02 939.006 799.747 937.883 798.462 936.861C794.573 933.512 790.713 930.667 786.154 928.288C799.247 917.918 811.797 906.892 824.502 896.056C847.964 876.045 871.424 855.87 895.35 836.423Z"/><path fill="#FDFDFD" d="M907.387 761.745C910.458 763.443 916.269 771.322 918.894 774.17C914.904 778.18 912.411 783.438 911.833 789.065C911.139 796.211 913.921 802.457 918.458 807.779L909.258 815.394L904.42 819.444C899.248 812.66 895.081 805.011 894.078 796.43C892.467 782.646 899.23 772.149 907.387 761.745Z"/><path fill="#FDFDFD" d="M722.499 813.431C727.514 817.529 729.359 827.807 730.066 833.882C731.535 846.502 729.423 861.015 721.383 871.237L716.39 867.039C713.133 864.508 710.106 861.881 707.139 859.016C708.456 856.994 709.706 854.947 710.778 852.783C715.76 842.725 713.67 833.784 710.315 823.738C714.468 820.423 718.459 816.882 722.499 813.431Z"/><path fill="#FDFDFD" d="M836.528 715.881C837.044 716.164 836.856 715.999 837.241 716.467C840.571 720.522 843.889 723.332 849.186 724.36C857.122 725.9 864.073 723.501 870.646 719.248C873.81 722.954 877.041 726.596 879.738 730.665C876.596 733.242 873.327 735.119 869.634 736.786C868.185 737.376 866.725 737.94 865.256 738.478C856.545 741.624 845.088 743.449 836.448 739.155C830.412 736.156 828.153 731.115 826.15 725.076C829.5 721.911 833.07 718.931 836.528 715.881Z"/><path fill="#FDFDFD" d="M759.171 894.675C762.584 894.125 766.662 894.17 770.11 894.476C781.085 895.452 790.329 901.291 797.357 909.554C793.122 912.846 788.953 916.168 784.879 919.66L781.475 916.896C781.104 916.619 780.732 916.345 780.357 916.073C770.843 909.188 761.619 909.164 750.449 910.964C747.904 906.644 744.554 902.561 741.66 898.446C747.403 896.789 753.254 895.528 759.171 894.675Z"/><path fill="#FDFDFD" d="M921.196 814.866C923.328 815.611 926.457 822.255 927.679 824.363C924.226 828.52 921.152 832.641 920.055 838.087C918.588 845.362 920.879 851.649 924.894 857.598L912.816 866.018C912.184 866.365 911.792 866.469 911.1 866.616C910.593 866.21 910.492 866.165 910.022 865.581C905.443 859.891 901.782 845.651 902.678 838.347C904.028 827.329 913.123 821.232 921.196 814.866Z"/><path fill="#FDFDFD" d="M744.908 930.183C748.47 929.826 751.878 930.071 755.395 930.651C758.479 933.84 762.471 939.225 767.128 939.707C771.843 940.195 776.55 935.608 779.929 932.938C786.182 935.426 791.113 940.141 796.075 944.533L788.913 949.005L780.641 954.89C778.832 953.184 776.653 951.647 774.522 950.367C766.282 945.42 756.134 943.191 746.678 945.538C743.686 941.018 740.663 936.519 737.609 932.042C740.1 931.094 742.266 930.539 744.908 930.183Z"/><path fill="#FDFDFD" d="M688.85 864.429C690.369 861.931 692.35 859.731 694.209 857.482C697.17 859.841 699.897 862.556 702.67 865.136C704.417 866.099 705.446 867.143 706.696 868.685C710.851 871.515 720.059 878.08 720.862 883.131C721.306 885.921 719.659 888.703 717.964 890.778C716.144 893.004 714.125 895.144 712.124 897.21C708.95 893.215 703.16 884.296 699.672 881.544C697.851 880.065 697.182 878.045 696.29 875.954C693.729 872.166 691.096 868.414 688.85 864.429Z"/><path fill="#19D3EC" d="M688.85 864.429C690.369 861.931 692.35 859.731 694.209 857.482C697.17 859.841 699.897 862.556 702.67 865.136C700.93 869.176 699.255 872.623 696.29 875.954C693.729 872.166 691.096 868.414 688.85 864.429Z"/><path fill="#3A5B6B" d="M702.67 865.136C704.417 866.099 705.446 867.143 706.696 868.685C706.982 873.362 703.792 876.932 700.882 880.248C700.489 880.695 700.088 881.118 699.672 881.544C697.851 880.065 697.182 878.045 696.29 875.954C699.255 872.623 700.93 869.176 702.67 865.136Z"/><path fill="#BDE680" d="M726.585 890.419C733.598 897.968 742.935 913.328 748.501 922.47C744.568 922.606 740.833 923.295 737.028 924.262C735.636 924.586 734.227 925.102 732.857 925.519C727.201 918.12 721.62 910.663 716.117 903.15C720.148 899.156 723.541 895.216 726.585 890.419Z"/><path fill="#19D3EC" d="M854.672 700.403C857.477 701.778 865.562 712.129 867.848 715.04C863.097 717.887 858.85 718.945 853.391 719.212C847.862 718.514 844.228 716.326 840.556 712.282C845.083 708.147 849.95 704.316 854.672 700.403Z"/><path fill="#19D3EC" d="M922.271 778.22C927.24 780.937 932.142 788.973 934.173 794.123C931.728 796.615 928.911 798.74 926.197 800.929L921.643 804.17C919.256 801.03 917.504 797.857 916.901 793.899C915.917 787.439 918.633 783.165 922.271 778.22Z"/><path fill="#19D3EC" d="M931.236 829.814C934.102 832.156 940.652 841.809 941.401 845.506C940.307 848.698 935.799 850.929 933.133 852.736L929.091 855.307C927.081 851.365 925.156 846.759 925.17 842.281C925.186 837.145 927.788 833.345 931.236 829.814Z"/><path fill="#19D3EC" d="M758.07 916.179C767.305 916.335 772.377 918.67 779.666 924.212C777.142 925.874 774.815 927.718 772.462 929.61L767.66 933.384C763.355 929.087 757.013 923.193 755.117 917.248C755.774 916.299 756.962 916.392 758.07 916.179Z"/><path fill="#19D3EC" d="M704.371 829.026C706.007 830.859 706.86 832.741 707.321 835.165C708.65 842.151 705.439 848.868 701.738 854.549L698.796 850.122C696.479 846.679 693.934 843.36 691.495 840C695.439 836.036 699.968 832.464 704.371 829.026Z"/><path fill="#19D3EC" d="M750.973 951.615C760.469 950.857 767.328 953.601 775.238 958.569L769.251 962.548L761.885 967.669C758.068 962.507 753.951 957.313 750.973 951.615Z"/><path fill="#3A5B6B" d="M119.891 787.665C131.759 786.523 143.456 791.137 151.348 800.076C159.239 809.014 162.369 821.193 159.765 832.828C158.842 836.952 157.223 840.889 154.978 844.469C146.502 857.985 130.352 864.594 114.832 860.896C99.312 857.198 87.877 844.017 86.4065 828.131C84.9359 812.245 93.7571 797.189 108.334 790.705C111.998 789.076 115.9 788.049 119.891 787.665Z"/><path fill="#FABA1F" d="M120.764 795.46C136.854 793.996 151.097 805.823 152.614 821.908C154.131 837.993 142.351 852.274 126.271 853.844C110.116 855.421 95.7541 843.574 94.2299 827.415C92.7057 811.255 104.6 796.932 120.764 795.46Z"/><path fill="#3A5B6B" d="M162.532 284.986C149.371 271.408 148.838 250.001 161.307 235.785C173.776 221.568 195.07 219.306 210.248 230.584C225.426 241.862 229.404 262.903 219.39 278.944C209.377 294.985 188.726 300.651 171.928 291.968C168.439 290.164 165.266 287.806 162.532 284.986Z"/><path fill="#FABA1F" d="M185.616 231.488C201.071 229.846 214.973 240.938 216.803 256.372C218.633 271.806 207.711 285.842 192.3 287.86C182.163 289.188 172.095 284.961 165.943 276.796C159.791 268.63 158.505 257.787 162.577 248.409C166.649 239.032 175.449 232.568 185.616 231.488Z"/><path fill="#8ACDB8" d="M251.465 906.464C252.134 906.43 252.273 906.409 253.007 906.442C258.92 906.707 266.359 912.675 271.668 915.25C285.552 921.983 300.288 927.886 314.83 933.03C321.282 935.312 327.896 937.718 334.518 939.449C340.779 941.086 347.627 942.054 353.692 944.237C355.383 944.845 357.012 945.6 358.199 946.994C359.242 948.217 359.654 949.572 359.438 951.155C359.13 953.414 357.921 954.489 356.161 955.779C355.259 955.821 354.39 955.81 353.489 955.724C346.063 955.013 338.172 952.416 331.033 950.273C308.74 943.582 287.708 935.126 266.619 925.326C261.585 922.987 252.198 919.619 248.825 915.305C247.854 914.064 247.524 912.762 247.773 911.219C248.124 909.031 249.799 907.699 251.465 906.464Z"/><path fill="#8ACDB8" d="M599.3 920.542C600.51 920.848 601.674 921.172 602.761 921.806C604.305 922.707 605.234 923.903 605.636 925.667C605.946 927.027 605.602 928.195 604.795 929.314C601.866 933.375 594.942 935.391 590.407 937.292C564.8 948.028 538.759 954.992 511.543 960.193C510.801 960.182 509.952 960.209 509.228 960.049C507.691 959.708 506.38 958.697 505.546 957.373C504.698 956.028 504.346 954.403 504.838 952.852C505.336 951.283 506.614 950.053 508.046 949.311C512.503 947.003 519.291 946.771 524.242 945.746C531.293 944.285 538.398 942.707 545.318 940.71C563.968 935.327 581.465 928.096 599.3 920.542Z"/><path fill="#8ACDB8" d="M323.859 199.632C324.696 199.526 325.477 199.424 326.32 199.538C328.291 199.803 330.035 200.788 331.048 202.55C331.787 203.835 331.788 205.417 331.236 206.766C330.572 208.428 329.258 209.745 327.597 210.412C323.69 211.938 319.18 212.611 315.081 213.56C309.682 214.793 304.334 216.234 299.047 217.881C285.743 221.967 272.508 226.189 259.583 231.378C252.526 234.211 245.719 237.61 238.725 240.591C236.774 240.958 234.967 241.086 233.223 239.934C232.09 239.185 231.562 238.005 231.316 236.718C231.025 235.197 231.361 233.913 232.252 232.655C235.607 227.921 244.451 225.233 249.73 222.996C273.37 212.981 298.506 204.085 323.859 199.632Z"/><path fill="#8ACDB8" d="M159.765 832.828C159.889 832.994 160.011 833.161 160.138 833.326C167.59 843.018 185.17 857.392 195.141 865.763C198.553 868.627 215.218 880.929 216.339 882.983C216.804 883.837 217.046 885.105 216.96 886.073C216.835 887.47 216.219 888.686 215.111 889.557C213.883 890.522 212.307 890.866 210.775 890.644C201.758 889.338 163.402 852.725 154.978 844.469C157.223 840.889 158.842 836.952 159.765 832.828Z"/><path fill="#8ACDB8" d="M400.24 952.101C408.838 952.21 417.545 953.49 426.182 953.797C438.169 954.223 450.165 953.702 462.15 954.107C463.625 954.863 464.681 955.601 465.366 957.172C466.037 958.716 466.064 960.464 465.442 962.029C464.668 963.996 463.212 964.824 461.382 965.679C447.046 967.11 416.986 966.094 402.282 964.083C400.052 963.778 397.571 963.337 396.275 961.246C395.434 959.889 395.094 957.123 395.74 955.649C396.495 953.924 398.635 952.839 400.24 952.101Z"/><path fill="#8ACDB8" d="M110.144 342.022C112.407 341.929 114.55 341.863 116.331 343.51C117.795 344.865 117.788 346.489 117.744 348.309C112.873 357.341 105.958 365.906 100.444 374.636C94.9558 383.326 90.4686 392.661 84.9487 401.28C84.0222 402.726 82.9728 403.818 81.6702 404.927C80.9152 405.107 80.0096 405.379 79.235 405.372C77.6175 405.359 75.7667 404.537 74.8334 403.166C74.1047 402.096 73.9667 400.693 74.1697 399.44C75.5608 390.855 99.6348 353.316 106.207 345.468C107.348 344.106 108.711 343.057 110.144 342.022Z"/><path fill="#8ACDB8" d="M41.4593 537.998C42.4444 538.027 43.4006 538.033 44.3559 538.304C45.8198 538.72 46.9439 539.335 47.5978 540.788C49.1071 544.144 47.9972 553.686 47.9199 557.524C47.8012 566.105 48.0315 574.688 48.61 583.25C49.0014 588.837 49.7536 594.521 49.7938 600.118C49.8031 601.405 49.7709 602.856 49.2544 604.061C48.3912 606.074 46.4662 607.096 44.5757 607.939C42.8738 607.659 40.8691 607.359 39.8663 605.738C36.0084 599.504 34.9941 551.32 36.8216 543.151C37.3939 540.593 39.4257 539.36 41.4593 537.998Z"/><path fill="#8ACDB8" d="M60.3934 435.982C61.4571 435.941 62.5669 435.876 63.6145 436.096C65.0839 436.405 66.3856 437.116 67.0906 438.51C67.8208 439.953 67.5351 441.644 67.2354 443.162C66.4989 446.893 64.9593 450.615 63.7953 454.236C61.6321 460.965 59.5278 467.967 57.9942 474.87C56.2316 482.804 55.6632 492.087 52.9398 499.679C52.2391 501.632 50.7432 502.225 49.0124 503.079C47.9778 503.091 46.9127 503.116 45.8972 502.891C44.5491 502.593 43.0766 501.938 42.4475 500.619C40.7311 497.02 44.2666 482.964 45.1957 478.659C47.385 468.516 51.9372 447.506 57.1274 438.995C57.9585 437.632 59.0729 436.832 60.3934 435.982Z"/><path fill="#8ACDB8" d="M50.5245 640.953C52.138 640.961 53.9749 641.123 55.3551 642.061C58.3636 644.106 59.1882 651.437 59.8732 654.735C62.1186 665.549 65.3678 676.069 69.0362 686.485C70.863 691.672 73.3893 696.913 74.4956 702.302C73.2383 704.038 71.9384 705.438 70.346 706.872C69.3641 706.887 68.3706 706.899 67.3997 706.73C65.8727 706.464 64.9684 706.021 64.0801 704.685C59.622 697.981 44.6421 651.521 46.7395 644.76C47.3432 642.814 48.9153 641.976 50.5245 640.953Z"/><path fill="#8ACDB8" d="M851.157 602.51C851.896 602.531 852.648 602.536 853.375 602.685C854.799 602.976 856.171 604.009 856.906 605.255C857.525 606.304 857.781 607.301 857.734 608.507C857.509 614.254 855.486 620.686 854.254 626.328L847.401 657.719C846.667 660.982 845.94 662.362 843.068 664.192C841.709 664.154 840.203 664.219 838.896 663.822C837.426 663.375 836.337 662.421 835.692 661.014C834.274 657.927 844.028 612.084 846.073 606.911C847.06 604.414 848.814 603.554 851.157 602.51Z"/><path fill="#8ACDB8" d="M108.334 790.705C103.953 784.999 82.3021 748.76 81.9781 744.311C81.8396 742.409 82.6195 740.733 83.9072 739.37C85.0407 738.17 86.843 737.479 88.4899 737.685C89.7913 737.848 90.7715 738.401 91.5654 739.418C95.3722 744.294 100.693 755.943 104.108 762.085C108.976 770.839 114.511 779.219 119.891 787.665C115.9 788.049 111.998 789.076 108.334 790.705Z"/><path fill="#8ACDB8" d="M404.665 188.705C407.727 188.519 414.48 187.405 417.035 188.883C418.679 189.835 419.619 191.399 419.94 193.25C420.241 194.989 419.858 197.019 418.697 198.389C417.668 199.604 416.223 199.996 414.723 200.265C410.782 200.97 406.514 200.812 402.503 201.04C395.285 201.415 388.076 201.947 380.881 202.636C377.293 203.089 371.545 204.552 368.313 202.771C366.725 201.896 365.529 200.324 365.201 198.526C364.895 196.889 365.387 195.205 366.526 193.99C370.598 189.69 397.588 189.197 404.665 188.705Z"/><path fill="#8ACDB8" d="M162.532 284.986C165.266 287.806 168.439 290.164 171.928 291.968C165.793 296.852 159.805 302.261 154.037 307.577C150.733 310.622 147.292 314.616 143.488 317.004C142.608 317.557 141.49 317.905 140.442 317.88C138.662 317.836 137.091 317.119 136.046 315.634C135.249 314.503 135.156 313.078 135.413 311.761C136.792 304.685 156.4 289.467 162.532 284.986Z"/><path fill="#8ACDB8" d="M656.392 886.968C657.318 886.975 658.296 886.99 659.201 887.198C660.948 887.601 662.619 888.849 663.454 890.444C664.077 891.636 663.967 892.728 663.57 893.968C662.022 898.808 648.429 907.349 643.822 909.94C643.429 909.965 643.036 909.981 642.643 909.99C640.805 910.023 639.435 909.707 638.128 908.323C637.003 907.132 636.098 905.742 636.323 904.024C637.039 898.565 651.687 890.021 656.392 886.968Z"/><path fill="#8ACDB8" d="M740.665 273.838C743.427 275.448 744.317 278.185 745.538 280.968C747.152 281.717 749.028 282.555 750.361 283.752C751.405 284.688 751.562 285.328 751.647 286.673C750.956 287.988 741.737 298.111 740.17 299.325C737.023 297.69 736.067 295.441 734.479 292.45C732.931 291.702 731.256 290.811 730.026 289.587C729.026 288.592 728.892 287.884 728.842 286.53C729.688 284.861 738.973 274.854 740.665 273.838Z"/></svg>